# xmcd
#
# Track frame offsets: 
#        150
#        12977
#        24343
#        36445
#        46913
#        61255
#        74932
#        84434
#        95917
#        108053
#        121250
#        131858
#        144618
#        157283
#        168950
#        179682
#        192842
#
# Disc length: 2712 seconds
#
# Revision: 1
# Processed by: cddbd v1.5.2PL0 Copyright (c) Steve Scherf et al.
# Submitted via: ExactAudioCopyFreeDBPlugin 1.0
#
DISCID=f80a9611
DTITLE=Betty Harris - The Lost Queen of New Orleans Soul
DYEAR=2016
DGENRE=Soul
TTITLE0=There's a Break in the Road
TTITLE1=12 Red Roses
TTITLE2=Mean Man
TTITLE3=I'm Gonna Git Ya
TTITLE4=Ride Your Pony
TTITLE5=Show It
TTITLE6=I Don't Wanna Hear It
TTITLE7=Bad Luck
TTITLE8=Hook, Line 'n' Sinker
TTITLE9=Lonely Hearts
TTITLE10=What a Sad Feeling
TTITLE11=What'd I Do Wrong
TTITLE12=Trouble with My Lover
TTITLE13=Sometime
TTITLE14=I'm Evil Tonight
TTITLE15=Nearer to You
TTITLE16=All I Want is You
EXTD=
EXTT0=
EXTT1=
EXTT2=
EXTT3=
EXTT4=
EXTT5=
EXTT6=
EXTT7=
EXTT8=
EXTT9=
EXTT10=
EXTT11=
EXTT12=
EXTT13=
EXTT14=
EXTT15=
EXTT16=
PLAYORDER=
